<svg xmlns="http://www.w3.org/2000/svg" viewBox="-12 -12 244 234" width="244" height="234">
<g transform="rotate(3 110 105)">
<text x="184" y="41.400000000000006" font-family="Fredoka, sans-serif" font-weight="600" font-size="26" fill="#5B3B8C">♪</text>
<text x="6" y="61.1" font-family="Fredoka, sans-serif" font-weight="600" font-size="19" fill="#FFB000">♫</text>
<text x="196" y="92.4" font-family="Fredoka, sans-serif" font-weight="600" font-size="16" fill="#FF7A59">♪</text>
<rect x="78" y="162" width="18" height="34" rx="9" fill="#F2C29B"></rect>
<path d="M 78 189 h 18 v 0 q 0 7 -9 7 h 0 q -9 0 -9 -7 z" fill="#E0A87C"></path>
<rect x="124" y="162" width="18" height="34" rx="9" fill="#F2C29B"></rect>
<path d="M 124 189 h 18 v 0 q 0 7 -9 7 h 0 q -9 0 -9 -7 z" fill="#E0A87C"></path>
<rect x="18" y="73" width="14" height="50" rx="7" fill="#F2C29B" transform="rotate(-32 25 98)"></rect>
<rect x="185" y="96" width="14" height="50" rx="7" fill="#F2C29B" transform="rotate(32 192 121)"></rect>
<ellipse cx="72" cy="54" rx="20" ry="20" fill="#FFFDF8"></ellipse>
<ellipse cx="148" cy="54" rx="20" ry="20" fill="#FFFDF8"></ellipse>
<ellipse cx="110" cy="48" rx="24" ry="24" fill="#FFFDF8"></ellipse>
<ellipse cx="41" cy="103" rx="17" ry="17" fill="#FFFDF8"></ellipse>
<ellipse cx="179" cy="103" rx="17" ry="17" fill="#FFFDF8"></ellipse>
<ellipse cx="110" cy="106" rx="75" ry="70" fill="#FFFDF8"></ellipse>
<ellipse cx="110" cy="100" rx="48" ry="42" fill="#F2C29B"></ellipse>
<path d="M 76 70 A 10 10 0 0 1 96 70" fill="none" stroke="#5B3B8C" stroke-width="4" stroke-linecap="round"></path>
<path d="M 124 70 A 10 10 0 0 1 144 70" fill="none" stroke="#5B3B8C" stroke-width="4" stroke-linecap="round"></path>
<path d="M 77 84 A 10 10 0 0 0 97 84" fill="none" stroke="#5B3B8C" stroke-width="4" stroke-linecap="round"></path>
<path d="M 123 84 A 10 10 0 0 0 143 84" fill="none" stroke="#5B3B8C" stroke-width="4" stroke-linecap="round"></path>
<path d="M 101 106 A 9 9 0 0 0 119 106" fill="none" stroke="#5B3B8C" stroke-width="4" stroke-linecap="round"></path>
<ellipse cx="73" cy="104" rx="7" ry="4" fill="#FFA98F" opacity="0.6"></ellipse>
<ellipse cx="147" cy="104" rx="7" ry="4" fill="#FFA98F" opacity="0.6"></ellipse>
<path d="M 48.5 84 V 79.5 A 61.5 53.5 0 0 1 171.5 84" fill="none" stroke="#FF7A59" stroke-width="9" stroke-linecap="round"></path>
<rect x="37" y="60" width="20" height="34" rx="8" fill="#FF7A59"></rect>
<rect x="163" y="60" width="20" height="34" rx="8" fill="#FF7A59"></rect>
</g>
</svg>