<svg xmlns="http://www.w3.org/2000/svg" viewBox="-12 -12 244 234" width="244" height="234">
<g>
<rect x="78" y="162" width="18" height="34" rx="9" fill="#F2C29B"></rect>
<path d="M 78 189 h 18 v 0 q 0 7 -9 7 h 0 q -9 0 -9 -7 z" fill="#E0A87C"></path>
<rect x="124" y="162" width="18" height="34" rx="9" fill="#F2C29B"></rect>
<path d="M 124 189 h 18 v 0 q 0 7 -9 7 h 0 q -9 0 -9 -7 z" fill="#E0A87C"></path>
<ellipse cx="72" cy="54" rx="20" ry="20" fill="#FFFDF8"></ellipse>
<ellipse cx="148" cy="54" rx="20" ry="20" fill="#FFFDF8"></ellipse>
<ellipse cx="110" cy="48" rx="24" ry="24" fill="#FFFDF8"></ellipse>
<ellipse cx="41" cy="103" rx="17" ry="17" fill="#FFFDF8"></ellipse>
<ellipse cx="179" cy="103" rx="17" ry="17" fill="#FFFDF8"></ellipse>
<ellipse cx="110" cy="106" rx="75" ry="70" fill="#FFFDF8"></ellipse>
<path d="M 48.5 84 V 79.5 A 61.5 53.5 0 0 1 171.5 84" fill="none" stroke="#FF7A59" stroke-width="9" stroke-linecap="round"></path>
<rect x="163" y="60" width="20" height="34" rx="8" fill="#FF7A59"></rect>
<rect x="37" y="60" width="20" height="34" rx="8" fill="#FF7A59"></rect>
<ellipse cx="110" cy="100" rx="48" ry="42" fill="#F2C29B"></ellipse>
<path d="M 76 72 A 10 10 0 0 1 96 72" fill="none" stroke="#5B3B8C" stroke-width="4" stroke-linecap="round"></path>
<path d="M 124 72 A 10 10 0 0 1 144 72" fill="none" stroke="#5B3B8C" stroke-width="4" stroke-linecap="round"></path>
<ellipse cx="87" cy="88" rx="13" ry="14" fill="#FFFFFF"></ellipse>
<ellipse cx="133" cy="88" rx="13" ry="14" fill="#FFFFFF"></ellipse>
<ellipse cx="87.5" cy="89.5" rx="6.5" ry="7.5" fill="#5B3B8C"></ellipse>
<ellipse cx="133.5" cy="89.5" rx="6.5" ry="7.5" fill="#5B3B8C"></ellipse>
<ellipse cx="86" cy="86" rx="2" ry="2" fill="#FFFFFF"></ellipse>
<ellipse cx="132" cy="86" rx="2" ry="2" fill="#FFFFFF"></ellipse>
<path d="M 100 108 A 10 10 0 0 0 120 108" fill="none" stroke="#5B3B8C" stroke-width="4" stroke-linecap="round"></path>
<ellipse cx="73" cy="106" rx="7" ry="4" fill="#FFA98F" opacity="0.6"></ellipse>
<ellipse cx="147" cy="106" rx="7" ry="4" fill="#FFA98F" opacity="0.6"></ellipse>
<ellipse cx="65.5" cy="98.5" rx="1.5" ry="1.5" fill="#E8A87E"></ellipse>
<ellipse cx="72.5" cy="95.5" rx="1.5" ry="1.5" fill="#E8A87E"></ellipse>
<ellipse cx="154.5" cy="98.5" rx="1.5" ry="1.5" fill="#E8A87E"></ellipse>
<ellipse cx="147.5" cy="95.5" rx="1.5" ry="1.5" fill="#E8A87E"></ellipse>
</g>
</svg>